<svg id="Layer_1" data-name="Layer 1" xmlns="http://www.w3.org/2000/svg" viewBox="0 0 1722.32 118.67"><defs><style>.cls-1{fill:#f2f2f2;}</style></defs>
<path class="cls-1" d="M83.2,379.89c129-42.55,266-49.52,400.77-43.06,138,6.61,274.72,27.19,412.38,37.51,70.09,5.25,140.48,7.89,210.73,4.58,33.86-1.6,67.66-4.6,101.24-9.29,28.32-4,60.39-6.63,86.13-20.14,19-10,32-27.82,28.46-49.94-2.85-17.52-17.8-33-36.62-27.17-19.88,6.21-28.18,30.83-20.48,49,10.47,24.68,38.71,33.84,63.42,34.54,17.16.49,34.36-1.72,51.46-2.84q26.38-1.71,52.83-2.42,52-1.38,104.09,1.17a1377.51,1377.51,0,0,1,208.91,26.29q25.9,5.29,51.6,11.59c3.75.92,5.35-4.87,1.59-5.78a1391.17,1391.17,0,0,0-384.36-38.66q-24.78,1-49.5,2.86c-15.69,1.19-31.52,2.92-47.22,1C1292.91,346,1256.92,323.54,1272,293c5.66-11.49,19-20.1,31.6-13.61,9.26,4.78,13.44,15.92,13.91,25.77,1.34,27.83-25.88,41.58-49.09,47.66-30.43,8-62.51,11.65-93.72,15-32.35,3.46-64.84,5.42-97.36,6.2-65.37,1.58-130.77-1.57-195.92-6.79-128.36-10.29-256-28.77-384.63-35.7-124.14-6.69-250.41-2.91-371.1,29.43q-22.22,6-44,13.19c-3.65,1.21-2.09,7,1.59,5.79Z" transform="translate(-79.53 -271.12)"/></svg>