<svg id="Layer_1" data-name="Layer 1" xmlns="http://www.w3.org/2000/svg" viewBox="0 0 1321.72 163.61"><defs><style>.cls-1{fill:#f2f2f2;}</style></defs><path class="cls-1" d="M212.59,414.29a2981.8,2981.8,0,0,0,330.5,61.44,2972.9,2972.9,0,0,0,337,23.84q85.15,1.17,170.27-2.55c24.1-1,49.69-.93,72.3-10.43,18.56-7.79,35.26-23.86,38.36-44.49a37.68,37.68,0,0,0-23.42-40.76c-15.84-6.47-33.25.43-38.76,17-6,17.95,2.84,36.63,17.46,47.3,19.38,14.14,45.69,17,68.92,18.24,27.94,1.54,56-.34,83.91.83a544.15,544.15,0,0,1,77.63,8.88,551.47,551.47,0,0,1,147.33,50q17.11,8.67,33.57,18.53c3.32,2,6.34-3.21,3-5.18a558,558,0,0,0-270.85-78.49c-26.14-.65-52.32,1-78.43-.75-22.82-1.55-50.56-4.81-67.55-21.94-13-13.07-17.23-43.74,5.22-50.2,19.72-5.66,37.94,14.77,36.32,33.36-2,23.5-23.59,39.43-44.59,45.51-23.8,6.89-49.85,6.22-74.42,7.18q-78.74,3.07-157.57,2A2978.85,2978.85,0,0,1,564.53,472.4a2962.57,2962.57,0,0,1-312-54.76q-19.19-4.44-38.32-9.14c-3.75-.92-5.35,4.87-1.6,5.79Z" transform="translate(-210.45 -398.94)"/></svg>