<svg id="Layer_1" data-name="Layer 1" xmlns="http://www.w3.org/2000/svg" viewBox="0 0 1359.62 259.8"><defs><style>.cls-1{fill:#f2f2f2;}</style></defs><path class="cls-1" d="M229.81,386.81q185.37-9.27,371.05-2.55Q786.34,391,970.75,413.8q92.67,11.44,184.79,26.95,45.6,7.68,91,16.33c29.11,5.55,58.26,13.07,87.71,16.55,24.75,2.93,50.7.49,70.35-16.23,14.48-12.32,25-33.56,16.67-52.28-6.58-14.84-24.16-25.49-40.44-23.3-19.19,2.58-27,22.55-22.45,39.74,6,22.81,26.85,34.24,47.47,41.89,23.22,8.61,45.61,17.06,66.64,30.43a263.22,263.22,0,0,1,95,106.36,249.4,249.4,0,0,1,13.14,32.89c1.18,3.66,7,2.09,5.79-1.6A267.79,267.79,0,0,0,1464.32,482c-19.84-11.25-41-17.84-62-26.27-20.24-8.11-46.24-27-38.25-52.62,6.81-21.88,33.66-17.53,46.24-3.77,16.88,18.46,3.55,44.61-14,57-23,16.27-52.55,13.55-78.81,8.69-57.39-10.62-114.48-22.45-172.08-32q-85.76-14.19-172-24.89Q799,386.48,623.3,379.14q-174.87-7.31-349.94-.3-21.78.87-43.55,2c-3.84.19-3.86,6.19,0,6Z" transform="translate(-226.92 -375.41)"/></svg>